<svg width="32" height="32" viewBox="0 0 32 32" fill="none" xmlns="http://www.w3.org/2000/svg">
<path d="M16 32C7.17696 32 0 24.823 0 16C0 7.17696 7.17696 0 16 0C24.823 0 32 7.17696 32 16C32 24.823 24.823 32 16 32ZM16 2.56C8.5888 2.56 2.56 8.5888 2.56 16C2.56 23.4112 8.5888 29.44 16 29.44C23.4112 29.44 29.44 23.4099 29.44 16C29.44 8.59008 23.4112 2.56 16 2.56Z" fill="#222222"/>
<path d="M16 24.96C15.6605 24.96 15.335 24.8252 15.0949 24.5851C14.8549 24.3451 14.72 24.0195 14.72 23.68V8.32004C14.72 7.98056 14.8549 7.65499 15.0949 7.41494C15.335 7.1749 15.6605 7.04004 16 7.04004C16.3395 7.04004 16.6651 7.1749 16.9051 7.41494C17.1451 7.65499 17.28 7.98056 17.28 8.32004V23.68C17.28 24.0195 17.1451 24.3451 16.9051 24.5851C16.6651 24.8252 16.3395 24.96 16 24.96Z" fill="#222222"/>
<path d="M23.68 17.2797H8.32001C7.98053 17.2797 7.65496 17.1449 7.41491 16.9048C7.17487 16.6648 7.04001 16.3392 7.04001 15.9997C7.04001 15.6602 7.17487 15.3347 7.41491 15.0946C7.65496 14.8546 7.98053 14.7197 8.32001 14.7197H23.68C24.0195 14.7197 24.3451 14.8546 24.5851 15.0946C24.8252 15.3347 24.96 15.6602 24.96 15.9997C24.96 16.3392 24.8252 16.6648 24.5851 16.9048C24.3451 17.1449 24.0195 17.2797 23.68 17.2797Z" fill="#222222" />
</svg>
