<svg width="51" height="43" viewBox="2 0 49 45" fill="none" xmlns="http://www.w3.org/2000/svg">
<path d="M25.5918 42.6201C24.1471 42.6225 22.7259 42.2548 21.4642 41.5522C8.00383 34.0181 0.591797 24.7373 0.591797 15.4201C0.591797 7.12072 6.40689 0.620117 13.8298 0.620117C16.04 0.622012 18.226 1.08051 20.2502 1.96677C22.2744 2.85303 24.0931 4.14789 25.5918 5.76991C27.0905 4.14789 28.9092 2.85303 30.9334 1.96677C32.9576 1.08051 35.1436 0.622012 37.3538 0.620117C44.7767 0.620117 50.5918 7.12072 50.5918 15.4201C50.5918 24.7373 43.1798 34.0181 29.7194 41.5522C28.4576 42.2547 27.0365 42.6223 25.5918 42.6201ZM13.8298 3.56735C7.96546 3.56735 3.54362 8.66311 3.54362 15.4201C3.54362 23.6242 10.4204 31.9914 22.9066 38.9803C23.7278 39.4365 24.652 39.6759 25.5918 39.6759C26.5316 39.6759 27.4558 39.4365 28.277 38.9803C40.7632 31.9914 47.64 23.6242 47.64 15.4201C47.64 8.66311 43.2181 3.56735 37.3538 3.56735C35.3034 3.57404 33.283 4.06033 31.4547 4.98722C29.6263 5.91411 28.041 7.25582 26.8257 8.90478C26.6933 9.1104 26.5104 9.27875 26.2944 9.3938C26.0784 9.50885 25.8366 9.56676 25.5918 9.56201C25.3491 9.56156 25.1102 9.50135 24.8964 9.38671C24.6825 9.27207 24.5003 9.10654 24.3658 8.90478C23.1497 7.25476 21.5631 5.9124 19.7333 4.98546C17.9035 4.05851 15.8816 3.57281 13.8298 3.56735Z" fill="#222222"/>
<path d="M5.5 6.5L11 3H17.5L22.5 6L25.5 8.5L29 6L32.5 4L37.5 3L42 4L45 7L47.5 10.5L48.5 14L47 21.5L43 28.5L37 33.5L31.5 38L25.5 40.5L19.5 38L14 34L8 29.5L4.5 22L2.5 14L5.5 6.5Z" fill="#222222"/>
</svg>
