<svg xmlns="http://www.w3.org/2000/svg" viewBox="0 0 24 24" id="pin">
<path fill="#222" d="m6.9 12.7 3.9 5.9c.5.8 1.3 1.2 2.2 1.3h.3c.8 0 1.6-.3 2.1-.9l1.1-1.1 2.1 2.1c.2.2.5.3.7.3s.5-.1.7-.3c.4-.4.4-1 0-1.4l-2.1-2.1 1.1-1.1c.6-.6 1-1.5.9-2.4-.1-.9-.6-1.7-1.3-2.2l-5.9-3.9c.6-1.8.3-3.8-1.2-5.2-.4-.4-1-.4-1.4 0l-8.5 8.5c-.4.4-.4 1 0 1.4 1 1 2.3 1.5 3.5 1.5.7-.1 1.3-.2 1.8-.4zm4.8-4.1 5.8 3.8c.3.2.4.4.4.7 0 .3-.1.6-.3.8L14 17.6c-.2.2-.5.3-.8.3-.3 0-.6-.2-.7-.4l-3.8-5.8.1-.1 2.8-2.8.1-.2zm-.9-4.7c.5 1.1.3 2.5-.6 3.4l-2.8 2.8c-.9.9-2.3 1.1-3.4.6l6.8-6.8z"></path>
</svg>