<svg xmlns="http://www.w3.org/2000/svg" enable-background="new 0 0 24 24" viewBox="0 0 24 24" id="shuffle">
<path fill="#222" d="M3,17h4c1.5654,0,3.0605-0.7476,4-2l3.5996-4.7998C15.1641,9.4487,16.0605,9,17,9h1.7296l-0.297,0.3247 c-0.373,0.4077-0.3457,1.04,0.0625,1.4131C18.6865,10.9136,18.9287,11,19.1699,11c0.2705,0,0.54-0.1094,0.7373-0.3247l1.8301-2 c0.0367-0.0402,0.0527-0.0898,0.0817-0.134c0.0383-0.0578,0.0816-0.1107,0.1074-0.176c0.031-0.0787,0.0389-0.1611,0.0492-0.2439 C21.9808,8.0798,22,8.0431,22,8c0-0.0042-0.0023-0.0076-0.0023-0.0117c-0.0015-0.1281-0.0256-0.2556-0.0757-0.3754 c-0.0507-0.1208-0.1242-0.2295-0.2156-0.3207L19.707,5.293c-0.3906-0.3906-1.0234-0.3906-1.4141,0s-0.3906,1.0234,0,1.4141 L18.5858,7H17c-1.5654,0-3.0605,0.7476-4,2l-3.5996,4.7998C8.8359,14.5513,7.9395,15,7,15H3c-0.5527,0-1,0.4478-1,1S2.4473,17,3,17 z"></path>
<path fill="#222" d="M2.0371 8c0 .5522.4473 1 1 1h3.3057c.8018 0 1.5557.312 2.1221.8784L9.293 10.707C9.4883 10.9023 9.7441 11 10 11s.5117-.0977.707-.2925c.3906-.3906.3906-1.0239 0-1.4146L9.8789 8.4644C8.9346 7.52 7.6787 7 6.3428 7H3.0371C2.4844 7 2.0371 7.4478 2.0371 8zM18.4951 19.7378C18.6865 19.9136 18.9287 20 19.1699 20c.2705 0 .54-.1094.7373-.3247l1.8301-2c.3613-.395.3477-1.0039-.0303-1.3823l-2-2c-.3906-.3906-1.0234-.3906-1.4141 0s-.3906 1.0234 0 1.4141l.2852.2852c-.7717-.0201-1.4955-.3232-2.043-.8707L14.707 13.293c-.3906-.3906-1.0234-.3906-1.4141 0-.3906.3901-.3906 1.0234 0 1.4141l1.8281 1.8286C16.0654 17.48 17.3213 18 18.6572 18h.0724l-.297.3247C18.0596 18.7324 18.0869 19.3647 18.4951 19.7378z"></path>
</svg>